<svg width="100" height="18" viewBox="0 0 100 18" fill="none" xmlns="http://www.w3.org/2000/svg">
<path d="M5.21777 14.4C4.22391 14.4 3.34421 14.22 2.57867 13.86C1.81313 13.5 1.20204 12.98 0.745396 12.3C0.302188 11.6067 0.0604375 10.78 0.0201459 9.82C0.00671529 9.60667 0 9.34 0 9.02C0 8.68667 0.00671529 8.41333 0.0201459 8.2C0.0604375 7.22667 0.302188 6.4 0.745396 5.72C1.1886 5.02667 1.79298 4.5 2.55852 4.14C3.33749 3.78 4.22391 3.6 5.21777 3.6C6.14448 3.6 6.93688 3.73333 7.59498 4C8.26651 4.25333 8.80373 4.57333 9.20665 4.96C9.623 5.34667 9.9319 5.74667 10.1334 6.16C10.3482 6.56 10.4624 6.91333 10.4758 7.22C10.4893 7.35333 10.4423 7.47333 10.3348 7.58C10.2274 7.67333 10.1065 7.72 9.97219 7.72H7.41367C7.26593 7.72 7.15177 7.68667 7.07119 7.62C6.99061 7.55333 6.91674 7.45333 6.84958 7.32C6.68842 6.90667 6.48024 6.61333 6.22506 6.44C5.98331 6.26667 5.6677 6.18 5.27821 6.18C4.74099 6.18 4.32464 6.35333 4.02917 6.7C3.74713 7.04667 3.59267 7.58 3.56581 8.3C3.55238 8.83333 3.55238 9.30667 3.56581 9.72C3.60611 10.4533 3.76727 10.9867 4.04931 11.32C4.33136 11.6533 4.74099 11.82 5.27821 11.82C5.69456 11.82 6.02361 11.7333 6.26536 11.56C6.50711 11.3733 6.70185 11.08 6.84958 10.68C6.91674 10.5467 6.99061 10.4467 7.07119 10.38C7.15177 10.3133 7.26593 10.28 7.41367 10.28H9.97219C10.1065 10.28 10.2274 10.3267 10.3348 10.42C10.4423 10.5133 10.4893 10.6333 10.4758 10.78C10.4624 10.9933 10.3953 11.2533 10.2744 11.56C10.1535 11.8667 9.96547 12.1867 9.71029 12.52C9.45511 12.8533 9.11935 13.16 8.703 13.44C8.30009 13.72 7.80987 13.9533 7.23236 14.14C6.65484 14.3133 5.98331 14.4 5.21777 14.4Z" fill="#0E0439"/>
<path d="M12.7895 14.2C12.6417 14.2 12.5208 14.1533 12.4268 14.06C12.3328 13.9533 12.2858 13.8333 12.2858 13.7V0.5C12.2858 0.353333 12.3328 0.233333 12.4268 0.14C12.5208 0.0466666 12.6417 0 12.7895 0H15.3681C15.5159 0 15.6367 0.0466666 15.7308 0.14C15.8248 0.233333 15.8718 0.353333 15.8718 0.5V4.96C16.2344 4.54667 16.6776 4.22 17.2014 3.98C17.7386 3.72667 18.3564 3.6 19.0548 3.6C19.8338 3.6 20.5255 3.77333 21.1298 4.12C21.7476 4.46667 22.2311 4.97333 22.5803 5.64C22.9295 6.30667 23.1041 7.13333 23.1041 8.12V13.7C23.1041 13.8333 23.0571 13.9533 22.9631 14.06C22.8691 14.1533 22.7482 14.2 22.6005 14.2H20.0017C19.8674 14.2 19.7465 14.1533 19.639 14.06C19.545 13.9533 19.498 13.8333 19.498 13.7V8.24C19.498 7.61333 19.3436 7.13333 19.0347 6.8C18.7392 6.45333 18.3027 6.28 17.7252 6.28C17.1611 6.28 16.7112 6.45333 16.3754 6.8C16.0397 7.13333 15.8718 7.61333 15.8718 8.24V13.7C15.8718 13.8333 15.8248 13.9533 15.7308 14.06C15.6367 14.1533 15.5159 14.2 15.3681 14.2H12.7895Z" fill="#0E0439"/>
<path d="M30.2235 14.4C28.6387 14.4 27.3762 13.9733 26.4361 13.12C25.4959 12.2667 25.0057 11 24.9654 9.32C24.9654 9.22667 24.9654 9.10667 24.9654 8.96C24.9654 8.81333 24.9654 8.7 24.9654 8.62C25.0057 7.56667 25.2407 6.66667 25.6705 5.92C26.1137 5.16 26.7181 4.58667 27.4836 4.2C28.2626 3.8 29.1692 3.6 30.2033 3.6C31.3852 3.6 32.3589 3.83333 33.1245 4.3C33.9035 4.76667 34.4877 5.4 34.8772 6.2C35.2667 7 35.4614 7.91333 35.4614 8.94V9.42C35.4614 9.56667 35.4144 9.68667 35.3204 9.78C35.2264 9.87333 35.1055 9.92 34.9578 9.92H28.5111C28.5111 9.93333 28.5111 9.95333 28.5111 9.98C28.5111 10.0067 28.5111 10.0333 28.5111 10.06C28.5245 10.4467 28.5917 10.8 28.7125 11.12C28.8468 11.44 29.0349 11.6933 29.2766 11.88C29.5318 12.0667 29.8407 12.16 30.2033 12.16C30.4719 12.16 30.6935 12.12 30.8681 12.04C31.0562 11.9467 31.2106 11.8467 31.3315 11.74C31.4524 11.62 31.5464 11.52 31.6135 11.44C31.7344 11.2933 31.8284 11.2067 31.8956 11.18C31.9762 11.14 32.097 11.12 32.2582 11.12H34.7563C34.8906 11.12 34.998 11.16 35.0786 11.24C35.1726 11.32 35.2129 11.4267 35.1995 11.56C35.1861 11.7867 35.0719 12.06 34.857 12.38C34.6421 12.7 34.3265 13.02 33.9102 13.34C33.5073 13.6467 32.9969 13.9 32.3791 14.1C31.7613 14.3 31.0427 14.4 30.2235 14.4ZM28.5111 7.94H31.9157V7.9C31.9157 7.46 31.8486 7.08667 31.7143 6.78C31.5934 6.46 31.3987 6.21333 31.13 6.04C30.8749 5.86667 30.566 5.78 30.2033 5.78C29.8541 5.78 29.552 5.86667 29.2968 6.04C29.0416 6.21333 28.8468 6.46 28.7125 6.78C28.5782 7.08667 28.5111 7.46 28.5111 7.9V7.94Z" fill="#0E0439"/>
<path d="M44.7234 18C44.5757 18 44.4548 17.9467 44.3608 17.84C44.2668 17.7467 44.2198 17.6333 44.2198 17.5V13.06C43.9109 13.4867 43.508 13.82 43.0111 14.06C42.5141 14.2867 41.9366 14.4 41.2785 14.4C40.6204 14.4 40.0295 14.2933 39.5057 14.08C38.9819 13.8533 38.5387 13.54 38.176 13.14C37.8134 12.74 37.5314 12.2533 37.3299 11.68C37.1285 11.1067 37.0143 10.46 36.9874 9.74C36.974 9.47333 36.9673 9.22667 36.9673 9C36.9673 8.77333 36.974 8.52667 36.9874 8.26C37.0277 7.51333 37.1486 6.85333 37.3501 6.28C37.5515 5.70667 37.8336 5.22 38.1962 4.82C38.5588 4.42 38.9953 4.12 39.5057 3.92C40.0295 3.70667 40.6204 3.6 41.2785 3.6C42.0306 3.6 42.6619 3.74 43.1722 4.02C43.6826 4.28667 44.0922 4.62 44.4011 5.02V4.3C44.4011 4.15333 44.4481 4.03333 44.5421 3.94C44.6496 3.84667 44.7705 3.8 44.9048 3.8H47.1812C47.329 3.8 47.4499 3.84667 47.5439 3.94C47.6379 4.03333 47.6849 4.15333 47.6849 4.3V17.5C47.6849 17.6333 47.6379 17.7467 47.5439 17.84C47.4499 17.9467 47.329 18 47.1812 18H44.7234ZM42.3664 11.72C42.7962 11.72 43.1386 11.6333 43.3938 11.46C43.6624 11.2733 43.8639 11.04 43.9982 10.76C44.1325 10.4667 44.2064 10.1533 44.2198 9.82C44.2467 9.55333 44.2601 9.3 44.2601 9.06C44.2601 8.82 44.2467 8.57333 44.2198 8.32C44.2064 7.96 44.1392 7.62667 44.0183 7.32C43.8975 7.01333 43.7027 6.76667 43.4341 6.58C43.1655 6.38 42.8096 6.28 42.3664 6.28C41.9232 6.28 41.5673 6.37333 41.2987 6.56C41.0435 6.74667 40.8554 7 40.7346 7.32C40.6271 7.64 40.56 7.99333 40.5331 8.38C40.5063 8.79333 40.5063 9.20667 40.5331 9.62C40.56 10.0067 40.6271 10.36 40.7346 10.68C40.8554 11 41.0435 11.2533 41.2987 11.44C41.5673 11.6267 41.9232 11.72 42.3664 11.72Z" fill="#0E0439"/>
<path d="M50.5629 14.2C50.4152 14.2 50.2943 14.1533 50.2003 14.06C50.1063 13.9533 50.0593 13.8333 50.0593 13.7V4.3C50.0593 4.15333 50.1063 4.03333 50.2003 3.94C50.2943 3.84667 50.4152 3.8 50.5629 3.8H52.7588C52.9065 3.8 53.0274 3.84667 53.1214 3.94C53.2154 4.03333 53.2625 4.15333 53.2625 4.3V4.98C53.5311 4.62 53.9071 4.30667 54.3906 4.04C54.8741 3.76 55.4449 3.61333 56.103 3.6C57.661 3.56 58.7287 4.13333 59.3062 5.32C59.6151 4.81333 60.0516 4.4 60.6157 4.08C61.1932 3.76 61.8244 3.6 62.5094 3.6C63.2078 3.6 63.8323 3.76 64.383 4.08C64.947 4.38667 65.397 4.86667 65.7327 5.52C66.0685 6.16 66.2364 6.99333 66.2364 8.02V13.7C66.2364 13.8333 66.1894 13.9533 66.0953 14.06C66.0013 14.1533 65.8805 14.2 65.7327 14.2H63.3958C63.2481 14.2 63.1205 14.1533 63.013 14.06C62.919 13.9533 62.872 13.8333 62.872 13.7V8.16C62.872 7.69333 62.8049 7.32667 62.6706 7.06C62.5363 6.78 62.3549 6.58 62.1266 6.46C61.8983 6.34 61.6364 6.28 61.3409 6.28C61.0992 6.28 60.8574 6.34 60.6157 6.46C60.3874 6.58 60.1993 6.78 60.0516 7.06C59.9173 7.32667 59.8501 7.69333 59.8501 8.16V13.7C59.8501 13.8333 59.8031 13.9533 59.7091 14.06C59.6151 14.1533 59.4942 14.2 59.3465 14.2H57.0096C56.8618 14.2 56.741 14.1533 56.647 14.06C56.5529 13.9533 56.5059 13.8333 56.5059 13.7V8.16C56.5059 7.69333 56.4321 7.32667 56.2843 7.06C56.1366 6.78 55.9486 6.58 55.7202 6.46C55.4919 6.34 55.2435 6.28 54.9748 6.28C54.7197 6.28 54.4712 6.34 54.2294 6.46C54.0011 6.58 53.8131 6.78 53.6654 7.06C53.5311 7.32667 53.4639 7.68667 53.4639 8.14V13.7C53.4639 13.8333 53.4102 13.9533 53.3027 14.06C53.2087 14.1533 53.0946 14.2 52.9603 14.2H50.5629Z" fill="#0E0439"/>
<path d="M71.6559 14.4C70.9307 14.4 70.2793 14.2667 69.7018 14C69.1377 13.72 68.6878 13.3467 68.352 12.88C68.0162 12.4133 67.8483 11.8867 67.8483 11.3C67.8483 10.3533 68.2378 9.60667 69.0168 9.06C69.7958 8.5 70.8299 8.12 72.1193 7.92L74.6375 7.54V7.26C74.6375 6.78 74.5368 6.41333 74.3353 6.16C74.1339 5.90667 73.7645 5.78 73.2273 5.78C72.8512 5.78 72.5423 5.85333 72.3006 6C72.0723 6.14667 71.891 6.34667 71.7566 6.6C71.6358 6.77333 71.4679 6.86 71.253 6.86H68.9967C68.8489 6.86 68.7348 6.82 68.6542 6.74C68.5736 6.64667 68.54 6.54 68.5535 6.42C68.5535 6.18 68.6408 5.90667 68.8154 5.6C69.0034 5.28 69.2854 4.96667 69.6615 4.66C70.0375 4.35333 70.521 4.1 71.112 3.9C71.7029 3.7 72.4215 3.6 73.2676 3.6C74.1271 3.6 74.8658 3.7 75.4836 3.9C76.1014 4.1 76.6051 4.38 76.9946 4.74C77.384 5.1 77.6661 5.52667 77.8407 6.02C78.0287 6.5 78.1227 7.03333 78.1227 7.62V13.7C78.1227 13.8333 78.069 13.9533 77.9616 14.06C77.8675 14.1533 77.7534 14.2 77.6191 14.2H75.2822C75.1344 14.2 75.0136 14.1533 74.9195 14.06C74.8255 13.9533 74.7785 13.8333 74.7785 13.7V13C74.6039 13.2533 74.3689 13.4867 74.0734 13.7C73.7779 13.9133 73.4288 14.08 73.0258 14.2C72.6363 14.3333 72.1797 14.4 71.6559 14.4ZM72.6028 12.12C72.9923 12.12 73.3414 12.04 73.6504 11.88C73.9727 11.7067 74.2211 11.4467 74.3957 11.1C74.5838 10.74 74.6778 10.2933 74.6778 9.76V9.48L72.9654 9.78C72.3342 9.88667 71.8708 10.0533 71.5753 10.28C71.2933 10.4933 71.1523 10.7467 71.1523 11.04C71.1523 11.2667 71.2194 11.46 71.3537 11.62C71.488 11.78 71.6626 11.9067 71.8775 12C72.1058 12.08 72.3476 12.12 72.6028 12.12Z" fill="#0E0439"/>
<path d="M80.8997 14.2C80.752 14.2 80.6311 14.1533 80.5371 14.06C80.4431 13.9533 80.3961 13.8333 80.3961 13.7V4.3C80.3961 4.16667 80.4431 4.05333 80.5371 3.96C80.6311 3.85333 80.752 3.8 80.8997 3.8H83.2165C83.3642 3.8 83.4851 3.85333 83.5791 3.96C83.6865 4.05333 83.7403 4.16667 83.7403 4.3V5.1C84.0895 4.68667 84.5125 4.36667 85.0095 4.14C85.5198 3.91333 86.0906 3.8 86.7219 3.8H87.6083C87.756 3.8 87.8769 3.84667 87.9709 3.94C88.0649 4.03333 88.1119 4.15333 88.1119 4.3V6.36C88.1119 6.49333 88.0649 6.61333 87.9709 6.72C87.8769 6.81333 87.756 6.86 87.6083 6.86H85.6541C85.1035 6.86 84.6737 7.01333 84.3648 7.32C84.0693 7.61333 83.9216 8.03333 83.9216 8.58V13.7C83.9216 13.8333 83.8679 13.9533 83.7604 14.06C83.6664 14.1533 83.5455 14.2 83.3978 14.2H80.8997Z" fill="#0E0439"/>
<path d="M90.048 14.2C89.9002 14.2 89.7794 14.1533 89.6853 14.06C89.5913 13.9533 89.5443 13.8333 89.5443 13.7V0.5C89.5443 0.353333 89.5913 0.233333 89.6853 0.14C89.7794 0.0466666 89.9002 0 90.048 0H92.3849C92.5192 0 92.6333 0.0466666 92.7274 0.14C92.8348 0.233333 92.8885 0.353333 92.8885 0.5V7.2L95.6888 4.14C95.7694 4.04667 95.8567 3.96667 95.9507 3.9C96.0447 3.83333 96.179 3.8 96.3536 3.8H99.0532C99.174 3.8 99.2748 3.84667 99.3553 3.94C99.4494 4.02 99.4964 4.12 99.4964 4.24C99.4964 4.29333 99.4829 4.35333 99.4561 4.42C99.4426 4.48667 99.4023 4.54 99.3352 4.58L95.7089 8.46L99.8388 13.44C99.9463 13.5467 100 13.6467 100 13.74C100 13.8733 99.953 13.9867 99.859 14.08C99.7784 14.16 99.671 14.2 99.5367 14.2H96.7767C96.5752 14.2 96.4275 14.1667 96.3335 14.1C96.2394 14.02 96.1522 13.94 96.0716 13.86L92.8885 10.06V13.7C92.8885 13.8333 92.8348 13.9533 92.7274 14.06C92.6333 14.1533 92.5192 14.2 92.3849 14.2H90.048Z" fill="#0E0439"/>
</svg>
