<svg width="30" height="30" viewBox="0 0 30 30" fill="none" xmlns="http://www.w3.org/2000/svg">
<g clip-path="url(#clip0)">
<path d="M22.4762 0.967773H7.5C3.38095 0.967773 0 4.23966 0 8.24888V22.742C0 26.7281 3.38095 30 7.5 30H22.4762C26.619 30 30 26.7281 30 22.7189V8.24888C30 4.23966 26.619 0.967773 22.4762 0.967773ZM16.5 19.5162C15.3095 19.5162 14.1667 18.9171 13.7857 18.2258C13.7857 18.2258 13.1429 20.6222 13 21.083C12.5238 22.7189 11.0952 24.3549 11 24.4931C10.9286 24.5853 10.7619 24.5622 10.7381 24.424C10.7143 24.2166 10.3571 22.1429 10.7619 20.4609C10.9762 19.6083 12.1905 14.7927 12.1905 14.7927C12.1905 14.7927 11.8333 14.1245 11.8333 13.1567C11.8333 11.6129 12.7857 10.4609 13.9762 10.4609C14.9762 10.4609 15.4762 11.1751 15.4762 12.0277C15.4762 12.9724 14.8333 14.401 14.5 15.7143C14.2143 16.8203 15.0952 17.7189 16.2619 17.7189C18.3571 17.7189 19.7857 15.1844 19.7857 12.189C19.7857 9.90787 18.1429 8.2028 15.1667 8.2028C11.8095 8.2028 9.69048 10.553 9.69048 13.1798C9.69048 14.0784 9.97619 14.7235 10.4286 15.2304C10.6429 15.4609 10.6667 15.553 10.5952 15.8065C10.5476 15.9908 10.4286 16.4516 10.3571 16.636C10.2857 16.8894 10.0476 17.0046 9.80952 16.8894C8.2619 16.2904 7.54762 14.7005 7.54762 12.9033C7.54762 9.95395 10.2143 6.40556 15.4762 6.40556C19.7143 6.40556 22.5 9.28575 22.5 12.3733C22.4762 16.4747 20.0714 19.5162 16.5 19.5162Z" fill="white"/>
</g>
<defs>
<clipPath id="clip0">
<rect width="30" height="29.0323" fill="white" transform="translate(0 0.967773)"/>
</clipPath>
</defs>
</svg>
