<svg width="30" height="30" viewBox="0 0 30 30" fill="none" xmlns="http://www.w3.org/2000/svg">
<g clip-path="url(#clip0)">
<path d="M22.4584 0.0126953H7.51784C3.37827 0.0126953 0 3.28199 0 7.28803V21.7696C0 25.7526 3.37827 29.0219 7.51784 29.0219H22.4822C26.6217 29.0219 30 25.7526 30 21.7466V7.28803C29.9762 3.28199 26.5979 0.0126953 22.4584 0.0126953ZM22.4346 10.8796C22.4346 11.0408 22.4346 11.202 22.4346 11.3631C22.4346 16.198 18.5805 21.7696 11.5147 21.7696C9.34972 21.7696 7.32752 21.171 5.63838 20.135C5.94766 20.158 6.23315 20.181 6.54243 20.181C8.35052 20.181 9.99207 19.6054 11.3006 18.6154C9.61142 18.5924 8.20777 17.5334 7.70817 16.0829C7.94607 16.1289 8.18398 16.152 8.42189 16.152C8.77875 16.152 9.13561 16.1059 9.44489 16.0138C7.73196 15.6685 6.42347 14.195 6.42347 12.4222V12.3762C6.89929 12.6524 7.51784 12.8136 8.1364 12.8366C7.1134 12.192 6.42347 11.0638 6.42347 9.79756C6.42347 9.12988 6.6138 8.50826 6.94687 7.9557C8.85012 10.1659 11.6574 11.6164 14.8454 11.7776C14.774 11.5013 14.7502 11.225 14.7502 10.9487C14.7502 8.92268 16.4631 7.28803 18.5805 7.28803C19.6749 7.28803 20.6741 7.72547 21.3878 8.43919C22.268 8.27803 23.0769 7.97872 23.8144 7.54128C23.5289 8.39314 22.9104 9.10686 22.1253 9.56733C22.9104 9.47523 23.6479 9.29105 24.3378 8.99174C23.8144 9.72849 23.1721 10.3731 22.4346 10.8796Z" fill="white"/>
</g>
<defs>
<clipPath id="clip0">
<rect width="30" height="29.0323" fill="white"/>
</clipPath>
</defs>
</svg>
