<svg width="30" height="30" viewBox="0 0 30 30" fill="none" xmlns="http://www.w3.org/2000/svg">
<g clip-path="url(#clip0)">
<path d="M17.6506 12.6513C17.0558 11.8455 16.0804 11.3159 14.986 11.3159C13.8916 11.3159 12.9162 11.8455 12.3214 12.6513C11.9408 13.1808 11.7029 13.8254 11.7029 14.5161C11.7029 16.2659 13.1779 17.6933 14.986 17.6933C16.7941 17.6933 18.2691 16.2659 18.2691 14.5161C18.2691 13.8254 18.0312 13.1808 17.6506 12.6513Z" fill="white"/>
<path d="M19.7231 12.6758C19.961 13.1362 20.1037 13.873 20.1037 14.5176C20.1037 17.2344 17.8198 19.4676 14.9887 19.4676C12.1577 19.4676 9.87375 17.2574 9.87375 14.5176C9.87375 13.85 10.0165 13.1362 10.2544 12.6758H7.37573V20.0662C7.37573 21.0332 8.25599 21.885 9.25519 21.885H20.7223C21.7215 21.885 22.6017 21.0332 22.6017 20.0662V12.6758H19.7231Z" fill="white"/>
<path d="M21.7453 7.56257H18.9856V10.6247H22.126V7.95397V7.53955L21.7453 7.56257Z" fill="white"/>
<path d="M22.4584 0.0126953H7.51784C3.37827 0.0126953 0 3.28199 0 7.28803V21.7696C0 25.7526 3.37827 29.0219 7.51784 29.0219H22.4822C26.6217 29.0219 30 25.7526 30 21.7466V7.28803C29.9762 3.28199 26.5979 0.0126953 22.4584 0.0126953ZM24.2665 12.6524V20.0659C24.2665 21.9999 22.7201 23.4964 20.7216 23.4964H9.25456C7.25615 23.4964 5.70975 21.9999 5.70975 20.0659V12.6524V8.96872C5.70975 7.03477 7.25615 5.53826 9.25456 5.53826H20.7216C22.7201 5.53826 24.2665 7.03477 24.2665 8.96872V12.6524Z" fill="white"/>
</g>
<defs>
<clipPath id="clip0">
<rect width="30" height="29.0323" fill="white"/>
</clipPath>
</defs>
</svg>
