<svg width="30" height="30" viewBox="0 0 30 30" fill="none" xmlns="http://www.w3.org/2000/svg">
<g clip-path="url(#clip0)">
<path d="M22.4762 0H7.5C3.38095 0 0 3.27189 0 7.28111V21.7742C0 25.7604 3.38095 29.0323 7.5 29.0323H22.4762C26.619 29.0323 30 25.7604 30 21.7512V7.28111C30 3.27189 26.619 0 22.4762 0ZM19.0238 14.5161H16.1905V23.5023H12.619V14.5161H10.7143V10.8295H12.381V9.26267C12.381 7.78802 13.1429 5.46083 16.3571 5.46083H19.2857V8.52534H17.2143C16.881 8.52534 16.4286 8.73272 16.4286 9.447V10.8295H19.3571L19.0238 14.5161Z" fill="white"/>
</g>
<defs>
<clipPath id="clip0">
<rect width="30" height="29.0323" fill="white"/>
</clipPath>
</defs>
</svg>
